HIERARCHY
ROOT Pelvis
{
	OFFSET 0.000000 0.941512 0.000000
	CHANNELS 6 Xposition Yposition Zposition Zrotation Yrotation Xrotation 
	JOINT Pelvis_L_Hip
	{
		OFFSET 0.000000 0.000000 0.000000
		CHANNELS 3 Zrotation Yrotation Xrotation
		JOINT L_Hip
		{
			OFFSET 0.062321 -0.080322 -0.016990
			CHANNELS 3 Zrotation Yrotation Xrotation
			JOINT L_Knee
			{
				OFFSET 0.093051 -0.381305 -0.029784
				CHANNELS 3 Zrotation Yrotation Xrotation
				JOINT L_Ankle
				{
					OFFSET -0.010371 -0.431000 -0.033614
					CHANNELS 3 Zrotation Yrotation Xrotation
					End Site #name: L_Foot
					{
						OFFSET 0.069299 -0.038670 0.119418
					}
				}
			}
		}
	}
	JOINT Pelvis_R_Hip
	{
		OFFSET 0.000000 0.000000 0.000000
		CHANNELS 3 Zrotation Yrotation Xrotation
		JOINT R_Hip
		{
			OFFSET -0.055334 -0.094904 -0.002373
			CHANNELS 3 Zrotation Yrotation Xrotation
			JOINT R_Knee
			{
				OFFSET -0.064207 -0.384370 -0.019592
				CHANNELS 3 Zrotation Yrotation Xrotation
				JOINT R_Ankle
				{
					OFFSET 0.025418 -0.419734 -0.065953
					CHANNELS 3 Zrotation Yrotation Xrotation
					End Site #name: R_Foot
					{
						OFFSET -0.057233 -0.039888 0.132134
					}
				}
			}
		}
	}
	JOINT Pelvis_Spine1
	{
		OFFSET 0.000000 0.000000 0.000000
		CHANNELS 3 Zrotation Yrotation Xrotation
		JOINT Spine1
		{
			OFFSET -0.005562 0.124093 -0.043360
			CHANNELS 3 Zrotation Yrotation Xrotation
			JOINT Spine2
			{
				OFFSET 0.012244 0.139499 0.029894
				CHANNELS 3 Zrotation Yrotation Xrotation
				JOINT Spine3
				{
					OFFSET -0.002556 0.056561 0.009225
					CHANNELS 3 Zrotation Yrotation Xrotation
					JOINT Spine3_Neck
					{
						OFFSET 0.000000 0.000000 0.000000
						CHANNELS 3 Zrotation Yrotation Xrotation
						JOINT Neck
						{
							OFFSET -0.005205 0.217920 -0.024551
							CHANNELS 3 Zrotation Yrotation Xrotation
							End Site #name: Head
							{
								OFFSET 0.002365 0.091850 0.046637
							}
						}
					}
					JOINT Spine3_L_Collar
					{
						OFFSET 0.000000 0.000000 0.000000
						CHANNELS 3 Zrotation Yrotation Xrotation
						JOINT L_Collar
						{
							OFFSET 0.072225 0.116603 -0.009480
							CHANNELS 3 Zrotation Yrotation Xrotation
							JOINT L_Shoulder
							{
								OFFSET 0.115937 -0.058643 -0.021018
								CHANNELS 3 Zrotation Yrotation Xrotation
								JOINT L_Elbow
								{
									OFFSET 0.021994 -0.254722 -0.024492
									CHANNELS 3 Zrotation Yrotation Xrotation
									End Site #name: L_Wrist
									{
										OFFSET 0.048810 -0.240214 0.103329
									}
								}
							}
						}
					}
					JOINT Spine3_R_Collar
					{
						OFFSET 0.000000 0.000000 0.000000
						CHANNELS 3 Zrotation Yrotation Xrotation
						JOINT R_Collar
						{
							OFFSET -0.073372 0.120704 -0.024611
							CHANNELS 3 Zrotation Yrotation Xrotation
							JOINT R_Shoulder
							{
								OFFSET -0.108089 -0.054969 -0.020504
								CHANNELS 3 Zrotation Yrotation Xrotation
								JOINT R_Elbow
								{
									OFFSET -0.033684 -0.260739 0.009889
									CHANNELS 3 Zrotation Yrotation Xrotation
									End Site #name: R_Wrist
									{
										OFFSET -0.067980 -0.232763 0.118463
									}
								}
							}
						}
					}
				}
			}
		}
	}
}
MOTION
Frames: 9
Frame Time: 0.041667
-0.289875 0.949624 0.298329 -8.279513 -29.551570 5.214424 0.000000 0.000000 0.000000 -8.592977 -3.727914 -14.743245 15.907719 -3.479808 22.067144 0.495329 -17.873558 -11.038446 0.000000 0.000000 0.000000 -1.856488 2.317680 -13.083220 23.020018 -3.820191 35.653880 -11.078697 -35.507175 14.501734 0.000000 0.000000 0.000000 16.557944 -4.715193 9.320830 -5.797521 0.181043 -13.858809 1.746057 -10.093193 11.098732 0.000000 0.000000 0.000000 3.270106 -0.634785 12.145726 0.000000 0.000000 0.000000 41.185713 -1.657811 -2.070325 15.333988 -0.984702 -4.771140 18.567264 7.721499 5.610854 0.000000 0.000000 0.000000 -42.149609 -3.785050 24.575321 -12.460544 0.218623 -2.878931 -22.249335 -11.661196 5.528765 
-0.299396 0.947494 0.306408 -8.508324 -29.318110 5.154232 0.000000 0.000000 0.000000 -7.928015 -3.281808 -13.065521 15.718592 -3.381079 20.854636 1.623574 -18.493429 -13.447629 0.000000 0.000000 0.000000 -2.456193 2.883735 -15.980865 22.032961 -3.544081 33.926305 -12.254705 -36.598706 12.316783 0.000000 0.000000 0.000000 16.313032 -4.821831 10.351340 -6.437824 0.186225 -14.538413 1.683975 -10.290391 11.430297 0.000000 0.000000 0.000000 3.566913 -0.852012 12.032869 0.000000 0.000000 0.000000 41.326903 -1.689628 -2.043076 15.842192 -0.963111 -5.756896 18.729072 7.783249 5.974357 0.000000 0.000000 0.000000 -41.970564 -4.249703 24.842286 -12.018848 0.228860 -3.652260 -22.520643 -11.763055 4.833107 
-0.309697 0.944071 0.314070 -8.389852 -29.001414 4.477206 0.000000 0.000000 0.000000 -7.121032 -2.850809 -11.432995 14.908161 -3.199766 20.459997 2.950369 -19.023579 -16.120783 0.000000 0.000000 0.000000 -3.411114 3.346395 -18.494091 21.199588 -3.361232 32.196274 -12.384092 -36.332983 10.713859 0.000000 0.000000 0.000000 15.780122 -4.901108 11.805413 -6.958136 0.186854 -14.777520 1.595358 -10.557175 11.888886 0.000000 0.000000 0.000000 3.609038 -1.008400 11.033619 0.000000 0.000000 0.000000 41.336148 -1.900143 -2.181726 16.418318 -0.951896 -6.561908 18.957981 7.862485 5.739895 0.000000 0.000000 0.000000 -41.420619 -5.115380 25.244144 -11.431877 0.241072 -4.359602 -23.024000 -11.965730 3.770697 
-0.321609 0.942135 0.322890 -8.477591 -28.646311 3.954337 0.000000 0.000000 0.000000 -6.297703 -2.486669 -10.058356 14.600872 -3.156029 20.530173 3.449915 -19.735469 -17.217903 0.000000 0.000000 0.000000 -4.099239 3.746147 -20.672279 19.748346 -2.980848 29.719591 -11.328459 -34.322755 9.656270 0.000000 0.000000 0.000000 15.928545 -5.123526 13.049748 -7.566444 0.193160 -14.901363 1.379043 -10.765355 12.260879 0.000000 0.000000 0.000000 3.374099 -0.967187 10.255056 0.000000 0.000000 0.000000 41.188473 -2.134406 -2.317570 16.180719 -0.937046 -7.029069 18.994031 7.875386 5.070204 0.000000 0.000000 0.000000 -41.127670 -5.882768 25.671858 -10.869631 0.253016 -4.435905 -23.082716 -11.964430 2.546034 
-0.336679 0.940685 0.332378 -8.602396 -28.229777 3.741099 0.000000 0.000000 0.000000 -5.067380 -2.173220 -8.884337 14.005665 -3.031670 20.238843 2.485625 -20.490519 -15.592208 0.000000 0.000000 0.000000 -4.519795 4.125062 -22.668335 17.240576 -2.314279 26.627142 -10.028811 -32.333568 9.979669 0.000000 0.000000 0.000000 15.901814 -5.234911 13.745110 -7.872619 0.204216 -14.637566 1.317262 -10.953332 12.265929 0.000000 0.000000 0.000000 3.245217 -0.935323 9.916766 0.000000 0.000000 0.000000 40.854755 -2.351297 -2.460448 15.527380 -0.911751 -7.535257 18.813268 7.818459 4.898137 0.000000 0.000000 0.000000 -41.074972 -6.403496 26.061877 -10.783702 0.246216 -4.122260 -22.802410 -11.818321 2.378802 
-0.355217 0.939460 0.341341 -8.465089 -27.559302 3.615586 0.000000 0.000000 0.000000 -3.385264 -1.908048 -7.877449 12.654449 -2.749385 20.019259 2.171191 -21.263259 -15.160626 0.000000 0.000000 0.000000 -4.891333 4.450161 -24.459736 13.846974 -1.496861 23.258999 -7.891131 -29.813291 12.063074 0.000000 0.000000 0.000000 15.522139 -5.271113 14.487099 -8.363368 0.211107 -14.618088 1.223345 -11.292211 12.273599 0.000000 0.000000 0.000000 3.513400 -1.143546 9.597480 0.000000 0.000000 0.000000 40.461511 -2.696287 -2.724813 15.139149 -0.904331 -7.873636 18.670114 7.784650 5.446158 0.000000 0.000000 0.000000 -41.078852 -7.186609 26.730485 -10.601382 0.247409 -4.105960 -22.533303 -11.684838 2.759447 
-0.377243 0.938044 0.349815 -8.288650 -26.487338 3.601693 0.000000 0.000000 0.000000 -1.948585 -1.711541 -7.106570 11.930518 -2.627922 19.950313 2.270469 -21.690048 -15.316760 0.000000 0.000000 0.000000 -5.140666 4.651733 -25.733622 10.519271 -0.813003 19.913866 -5.834456 -27.669365 14.337544 0.000000 0.000000 0.000000 14.943981 -5.253476 15.076232 -8.775920 0.209971 -14.545597 1.001447 -11.636336 12.433194 0.000000 0.000000 0.000000 4.061286 -1.537152 9.160352 0.000000 0.000000 0.000000 39.998731 -3.303903 -3.196038 14.892321 -0.909294 -8.163618 18.732076 7.827800 6.219138 0.000000 0.000000 0.000000 -41.329917 -8.047405 27.545102 -10.052231 0.253983 -3.764514 -22.651513 -11.741728 3.103783 
-0.403142 0.935492 0.357557 -8.284003 -25.500407 3.858554 0.000000 0.000000 0.000000 -0.545638 -1.502420 -6.243268 11.813122 -2.628149 19.592087 2.645435 -21.479400 -15.784678 0.000000 0.000000 0.000000 -5.050519 4.852455 -26.784672 8.139141 -0.374938 17.634105 -3.902474 -25.191957 15.510707 0.000000 0.000000 0.000000 14.335876 -5.178727 15.361272 -9.206008 0.228834 -14.273274 0.693426 -11.764080 12.585412 0.000000 0.000000 0.000000 4.662413 -1.933218 9.020290 0.000000 0.000000 0.000000 39.653848 -4.047376 -3.796446 14.699332 -0.924167 -8.186010 18.703526 7.831279 6.462502 0.000000 0.000000 0.000000 -41.801597 -8.458864 28.050901 -9.416801 0.242150 -2.794732 -22.852084 -11.843117 3.515552 
-0.432929 0.932835 0.365180 -8.526465 -24.885209 4.597800 0.000000 0.000000 0.000000 1.211690 -1.376171 -5.703418 12.009125 -2.699087 19.605422 3.070078 -21.419371 -16.434218 0.000000 0.000000 0.000000 -4.252504 5.146155 -27.640921 7.073515 -0.173372 16.924056 -2.811271 -23.048683 15.025808 0.000000 0.000000 0.000000 13.858192 -5.038700 14.994806 -9.605446 0.273233 -13.856159 0.270832 -11.854326 12.519812 0.000000 0.000000 0.000000 5.131119 -2.206195 9.180379 0.000000 0.000000 0.000000 39.093969 -4.338234 -4.024732 14.292851 -0.930546 -8.204823 18.724640 7.844865 6.343543 0.000000 0.000000 0.000000 -42.335394 -8.502651 28.389304 -9.400640 0.225770 -2.092283 -22.774728 -11.825066 4.135831 
